<svg width="165" height="109" viewBox="0 0 165 109" fill="none" xmlns="http://www.w3.org/2000/svg">
<path d="M74.0935 51.6947C74.0935 51.6947 81.8534 51.1067 81.8534 41.8199C81.8534 32.5325 75.5048 28 67.4629 28H41V79.8997H67.4629C67.4629 79.8997 83.6175 80.4204 83.6175 64.5813C83.6175 64.5814 84.3218 51.6947 74.0935 51.6947ZM65.5581 37.2246H67.4629C67.4629 37.2246 71.0599 37.2246 71.0599 42.6245C71.0599 48.0238 68.9445 48.8066 66.545 48.8066H52.6599V37.2246H65.5581ZM66.7151 70.6754H52.6599V56.8059H67.4629C67.4629 56.8059 72.8241 56.7341 72.8241 63.9334C72.8241 70.004 68.8198 70.6295 66.7151 70.6754ZM105.162 41.2048C85.6055 41.2048 85.6229 61.1462 85.6229 61.1462C85.6229 61.1462 84.281 80.9853 105.162 80.9853C105.162 80.9853 122.563 81.9998 122.563 67.1844H113.614C113.614 67.1844 113.913 72.7636 105.461 72.7636C105.461 72.7636 96.5104 73.3758 96.5104 63.7342H122.862C122.862 63.7341 125.745 41.2048 105.162 41.2048ZM96.412 56.8059C96.412 56.8059 97.5048 48.8064 105.361 48.8064C113.216 48.8064 113.118 56.8059 113.118 56.8059H96.412ZM115.202 37.4486H94.2211V31.0576H115.202V37.4486Z" fill="#F2C491"/>
</svg>
