<svg width="202" height="202" viewBox="0 0 202 202" fill="none" xmlns="http://www.w3.org/2000/svg">
<path d="M57.6162 166.65C57.7162 164.5 58.0162 162.55 58.2162 162.35C58.6662 161.85 67.3162 161.05 72.8162 161C76.0162 161 76.6662 160.85 76.9162 160.15C77.0662 159.65 77.3162 156.55 77.5162 153.3L77.8662 147.35L73.3662 147.7C70.9162 147.85 67.1662 148.3 65.0662 148.7L61.2162 149.35V145.5V141.65L63.1162 141.1C64.1162 140.8 67.7662 140.2 71.2162 139.75C74.6662 139.25 77.7662 138.65 78.1162 138.4C78.4662 138.1 78.7162 136.75 78.7162 135.15V132.45L75.8662 132.75C74.2662 132.95 69.9662 133.5 66.3162 134.05C62.6162 134.55 59.4162 135 59.1662 135C58.4662 135 57.9162 132 58.2162 129.8L58.4662 127.75L62.4662 127.15C66.1662 126.6 78.6662 125.45 82.6662 125.3C84.3162 125.25 84.4162 125.35 84.8662 127.25C85.7162 131.05 84.4162 168.95 83.4162 170C83.2662 170.15 77.3162 170.3 70.2662 170.4L57.3662 170.55L57.6162 166.65Z" fill="#F2C491"/>
<path d="M89.4163 162.05C89.6163 157.75 89.9663 149.55 90.2163 143.75C90.4663 138 90.7163 130.6 90.7163 127.4C90.7163 120.65 90.7663 120.7 85.9663 121.5C81.5663 122.25 81.7663 122.35 81.7663 118.8C81.7663 115.1 81.8663 115 86.9663 115C90.9663 115 91.3163 114.7 91.1163 111.7L90.9663 109.25L87.4663 109.1C85.5663 109 77.5663 109.3 69.7663 109.75C58.0663 110.45 55.5163 110.5 55.1663 109.95C54.4163 108.7 54.0663 104.45 54.6663 103.85C55.1163 103.4 61.0663 103.25 76.3663 103.25H97.4663V135.8C97.4663 162.6 97.3663 168.5 96.7663 169.15C96.2663 169.8 95.2663 170 92.5663 169.95L89.0663 169.9L89.4163 162.05Z" fill="#F2C491"/>
<path d="M102.016 169.05C101.116 167.6 100.866 157.55 101.166 133.75C101.516 104.6 101.366 105.75 105.116 104.15C107.516 103.15 112.866 103.5 115.466 104.8C118.366 106.25 119.216 108.3 119.216 114C119.216 116.6 119.666 126.85 120.216 136.75C120.766 146.65 121.216 158.05 121.216 162.05V169.35L117.466 169.4L113.766 169.45L113.516 167.85C113.366 166.95 113.166 160.2 112.966 152.75C112.816 145.35 112.566 136.05 112.366 132.15L112.066 125L110.316 124C109.366 123.4 108.466 123.05 108.366 123.2C108.066 123.45 109.066 158.65 109.466 164.25C109.616 166.2 109.566 168 109.366 168.3C108.816 169.15 102.416 169.75 102.016 169.05ZM111.716 113.75V110.5H109.966H108.216V113.2C108.216 115.7 108.316 115.95 109.616 116.4C110.366 116.7 111.116 116.95 111.366 116.95C111.566 117 111.716 115.55 111.716 113.75Z" fill="#F2C491"/>
<path d="M127.866 168.45C126.866 167.85 125.966 166.65 125.516 165.35C124.316 162.05 122.716 134.65 122.766 118C122.766 107.8 123.066 106.95 127.466 104.75C130.216 103.4 130.916 103.25 135.466 103.25C139.566 103.25 140.766 103.45 142.166 104.25C145.366 106.15 145.816 107.25 145.766 113.05C145.716 116.25 145.466 118.35 145.116 118.55C144.316 119.05 138.216 119.65 137.816 119.25C137.616 119.05 137.366 117.15 137.266 114.95L137.116 111H135.216C133.966 111 133.216 111.25 133.016 111.8C132.216 113.85 133.116 150.25 134.116 157.25C134.466 159.6 134.566 159.75 135.966 159.75H137.466L137.716 153.5C137.866 150.05 138.116 147 138.316 146.7C138.516 146.35 139.566 146.1 140.566 146.05C141.616 146 143.116 145.9 143.916 145.85C145.966 145.7 146.366 147.35 146.016 155.15C145.666 162.35 144.916 164.55 142.116 166.65C138.316 169.5 130.966 170.45 127.866 168.45Z" fill="#F2C491"/>
<path d="M59.6663 123.9C59.6163 123.8 59.5663 122.45 59.4663 120.9C59.3663 118.85 59.5163 118 60.0163 117.8C60.4163 117.65 62.7663 117.4 65.3163 117.25C67.8663 117.05 71.4663 116.6 73.2663 116.15C77.8163 115.1 78.6163 115.55 78.5163 119.1L78.4663 121.75L74.2163 122.05C71.8663 122.25 68.1663 122.75 65.9663 123.2C62.3163 123.9 59.8163 124.2 59.6663 123.9Z" fill="#F2C491"/>
<path d="M104.817 66.9C104.917 40.05 105.067 34 105.667 33.35C106.167 32.7 107.167 32.5 109.767 32.5H113.217V37.15C113.217 39.65 113.017 45.9 112.767 51C112.517 56.1 112.117 64.95 111.917 70.7L111.567 81.15L116.117 80.85L120.617 80.5L120.817 83.3C120.867 84.85 120.817 86.3 120.667 86.6C120.517 86.85 118.317 87.2 115.817 87.35L111.217 87.65V90.35C111.217 92.1 111.467 93.1 111.867 93.3C112.267 93.4 120.417 93.2 130.017 92.85C139.617 92.45 147.567 92.2 147.617 92.3C147.717 92.35 147.917 93.75 148.067 95.4C148.317 98.2 148.267 98.35 147.167 98.75C146.517 98.95 136.667 99.2 125.317 99.35L104.667 99.6L104.817 66.9Z" fill="#F2C491"/>
<path d="M61.1663 98.3501C60.1663 97.9501 58.5163 97.1501 57.5163 96.5501C53.9663 94.3501 54.1163 95.4001 54.0163 65.3001C53.9663 38.8501 53.9663 38.2001 55.0163 36.5001C57.1163 32.8501 63.2163 31.1001 68.1163 32.7001C70.9163 33.6501 73.9163 36.5001 74.5663 38.8501C75.0663 40.6501 75.0663 47.8001 74.6163 48.3001C74.4163 48.5001 72.6163 48.4501 70.6163 48.2001L66.9663 47.7501L66.8163 44.6501C66.6663 41.5501 66.6663 41.5501 64.9663 41.2001C64.0663 41.0501 63.0663 41.0501 62.7663 41.2001C62.4663 41.4001 62.3663 43.0001 62.5163 45.4001C62.6663 47.5001 63.0663 58.2501 63.4663 69.2501C63.8163 80.2501 64.3163 89.7501 64.5163 90.4001C64.7663 91.3501 65.1163 91.5501 66.6663 91.4001L68.4663 91.2501L68.8163 85.6001C68.9663 82.4501 69.2663 79.8001 69.4163 79.6501C69.5663 79.5001 71.3663 79.5501 73.4663 79.7501L77.2163 80.1001L77.3163 85.1501C77.5663 95.2001 77.3663 95.9001 73.9663 97.6001C71.4163 98.9501 63.8663 99.3501 61.1663 98.3501Z" fill="#F2C491"/>
<path d="M81.6165 98.65C79.8165 98.45 79.7665 98.4 79.5165 95.85C79.3665 94.4 79.1165 87.85 79.0165 81.25C78.8665 74.65 78.5165 65.75 78.2165 61.5C77.9665 57.25 77.6665 50.4 77.6165 46.25C77.4665 39.35 77.5665 38.6 78.5665 36.7C80.2665 33.55 80.7165 33.35 86.1165 33.3C91.9665 33.25 93.6665 34 95.9665 37.75L97.4665 40.15L97.8165 68C98.0165 83.3 98.0165 96.45 97.8165 97.25C97.4665 98.45 97.0665 98.8 95.8665 98.9C95.0165 99 93.5665 98.85 92.6665 98.6L90.9665 98.2L90.7165 79.4C90.5665 69.05 90.3165 60.45 90.1665 60.3C90.0165 60.1 89.0165 60.35 88.0165 60.75L86.1165 61.55L86.4665 67.15C86.9665 76 87.6165 98.2 87.3665 98.65C87.1665 99 85.1165 99 81.6165 98.65ZM88.4665 51.5C89.7165 51.05 89.7665 50.85 89.6165 47.65L89.4665 44.25H87.6165C86.5665 44.25 85.7165 44.4 85.7165 44.65C85.7165 44.85 85.7165 46.6 85.7165 48.5C85.7165 52.3 85.9165 52.5 88.4665 51.5Z" fill="#F2C491"/>
<path d="M123.816 83.55L123.716 80.5H126.366C127.816 80.5 131.466 80.05 134.516 79.45C137.516 78.9 140.716 78.3 141.616 78.15L143.216 77.85V81.2C143.216 83 143.166 84.5 143.116 84.55C142.366 84.7 129.266 86.15 126.966 86.35L123.966 86.55L123.816 83.55Z" fill="#F2C491"/>
<path d="M116.916 76.8C116.566 75.95 118.616 33.05 119.016 32.4C119.166 32.2 125.166 32 132.316 32H145.366L145.066 35.75C144.916 37.8 144.666 39.65 144.516 39.9C144.366 40.15 141.916 40.5 139.116 40.7C136.266 40.85 132.116 41.15 129.866 41.3L125.766 41.6L125.516 45.2C125.366 47.15 125.166 50.2 125.016 51.95L124.816 55.1L127.616 54.85C131.316 54.5 137.716 53.65 139.916 53.25L141.666 52.9L141.566 56.75C141.466 61.45 141.966 61.15 131.716 62.6C127.716 63.15 124.316 63.8 124.166 64.05C123.816 64.65 123.616 68.9 123.916 69.45C124.066 69.65 125.716 69.65 127.566 69.4C134.516 68.55 142.416 67.4 143.066 67.15C144.666 66.55 145.466 73.6 143.866 74.45C142.816 74.95 136.566 75.75 127.466 76.5C123.916 76.8 120.116 77.2 119.116 77.35C117.666 77.55 117.166 77.45 116.916 76.8Z" fill="#F2C491"/>
</svg>
