<svg width="600" height="600" viewBox="0 0 600 600" fill="none" xmlns="http://www.w3.org/2000/svg">
<rect x="15" y="15" width="570" height="570" rx="85" fill="#1E1E1E" stroke="#2C8396" stroke-width="30"/>
<path d="M100 100H187.5C235.825 100 275 139.175 275 187.5V187.5C275 235.825 235.825 275 187.5 275H100V100Z" fill="#2C8396"/>
<path d="M500 100L500 187.5C500 235.825 460.825 275 412.5 275V275C364.175 275 325 235.825 325 187.5L325 100L500 100Z" fill="#BA441A"/>
<path d="M500 324L500 499V499C472.386 499 450 476.614 450 449L450 374C450 346.386 472.386 324 500 324V324Z" fill="#843112"/>
<path d="M100 325H312.5C360.825 325 400 364.175 400 412.5V412.5C400 460.825 360.825 500 312.5 500H100V325Z" fill="#2C8396"/>
</svg>
