<svg width="1278" height="1278" viewBox="0 0 1278 1278" fill="none" xmlns="http://www.w3.org/2000/svg">
<rect width="1278" height="1278" rx="300" fill="#0099E5"/>
<path d="M1050.82 537.905L1057.14 544.222L1059.22 535.528C1065.02 511.218 1068.09 485.858 1068.1 459.792C1068.13 369.287 1029.9 288.81 970.438 229.849C962.735 222.141 954.668 214.795 946.265 207.845C943.834 205.68 941.329 203.584 938.747 201.568C924.449 190.404 909.417 180.624 893.831 172.228C848.432 147.366 796.596 132.983 741 133C714.74 133.011 690.568 137.38 666.445 143.124L666.435 143.126L666.425 143.129C611.239 156.502 558.925 184.729 515.835 227.776L515.834 227.777L513.608 230.002L513.607 230.003L284.197 459.193L287.731 462.73L284.197 459.193L124.629 618.613C114.854 628.379 114.855 644.221 124.63 653.986L217.313 746.57L220.847 750.101L224.381 746.57L394.572 576.537L473.039 654.929L586.052 767.834L693.755 875.435C725.213 906.863 776.227 906.848 807.701 875.404L807.701 875.403C839.168 843.951 839.193 792.982 807.732 761.553L700.03 653.952L587.017 541.047L508.559 462.661L627.517 343.814L623.983 340.277L627.517 343.814L629.744 341.589C691.592 279.801 791.73 279.605 853.739 341.015C853.827 341.104 853.914 341.19 853.996 341.271L854.063 341.338C854.124 341.398 854.182 341.456 854.239 341.514L857.167 344.442L857.169 344.443L903.209 390.436L1050.82 537.905ZM794.442 401.148L794.438 401.145C765.441 372.229 718.466 372.259 689.455 401.227L689.454 401.228L631.544 459.081L628.003 462.618L631.544 466.155L674.835 509.409L678.369 505.872L674.835 509.409L867.483 701.873C931.909 766.237 931.876 870.627 867.408 935.041C802.93 999.45 698.434 999.483 634.004 935.116L441.358 742.652L437.824 746.189L441.357 742.652L398.061 699.401L394.527 695.87L390.994 699.401L284.084 806.211L280.543 809.748L284.084 813.285L520.026 1049C647.368 1176.23 853.895 1176.15 981.313 1048.85C1108.74 921.553 1108.81 715.212 981.461 587.99L794.442 401.148Z" fill="white" stroke="#E6E6E6" stroke-width="10"/>
</svg>
