<svg width="900" height="888" viewBox="0 0 900 888" fill="none" xmlns="http://www.w3.org/2000/svg">
<path fill-rule="evenodd" clip-rule="evenodd" d="M592.664 150.992L384.2 151.093L319.123 151.125L314.981 151.126C314.859 151.126 314.738 151.127 314.617 151.127C314.5 151.128 314.383 151.128 314.265 151.128C224.235 151.557 151.337 224.742 151.293 314.92L151.292 318.069L151.211 491.226L267.12 491.173L426.869 491.097L579.112 491.025C620.814 491.004 654.602 524.817 654.592 566.55C654.572 608.282 620.745 642.126 579.04 642.146L426.797 642.218L267.048 642.294L151.137 642.35L151.023 887.469H245.412L245.483 736.758L306.68 736.726L578.994 736.596C672.831 736.551 748.931 660.398 748.981 566.504C749.021 472.611 672.991 396.53 579.157 396.575L306.842 396.704L245.645 396.731L245.685 314.874C245.715 276.63 276.679 245.632 314.868 245.578L579.229 245.452C597.756 245.443 615.915 247.006 633.582 250.013C625.784 215.405 612.145 181.875 592.664 150.992Z" fill="#4CAAB0"/>
<path fill-rule="evenodd" clip-rule="evenodd" d="M384.201 151.093L592.854 150.992C579.969 130.032 564.45 110.235 546.303 92.0742C483.356 29.0884 400.736 -0.346516 318.2 0.00307672C307.424 -0.000930072 296.649 0.503932 285.916 1.52366C282.739 1.70497 279.564 1.98644 276.393 2.3771C258.663 4.5588 241.388 8.216 224.692 13.2235C175.772 27.5197 129.687 53.586 91.0065 92.2916C72.8404 110.472 59.073 130.283 46.1674 151.256C17.0659 198.971 0.300335 255.028 0.270303 314.992L0.269295 318.141L0.114133 642.422L0 888L151.023 887.92L151.138 642.349L267.049 642.294L426.798 642.218L579.04 642.146C620.746 642.126 654.573 608.282 654.593 566.55C654.603 524.817 620.815 491.004 579.112 491.025L426.87 491.097L267.121 491.173L151.212 491.226L151.293 318.068L151.294 314.92C151.339 224.742 224.236 151.557 314.266 151.128C314.506 151.128 314.742 151.126 314.982 151.126H319.124L384.201 151.093ZM314.869 245.578L579.229 245.452C756.469 245.367 900.09 389.076 900 566.432C899.92 743.79 756.169 887.639 578.924 887.719L245.412 887.88L245.483 736.757L306.682 736.725L578.995 736.596C672.832 736.551 748.932 660.398 748.982 566.504C749.022 472.611 672.992 396.53 579.158 396.575L306.843 396.705L245.646 396.731L245.686 314.874C245.716 276.63 276.68 245.632 314.869 245.578Z" fill="white"/>
</svg>
