<svg width="165" height="109" viewBox="0 0 165 109" fill="none" xmlns="http://www.w3.org/2000/svg">
<path d="M117 42.0479C117 48.2265 113.789 56.8134 108.516 61.0793C104.253 64.5333 98.6198 65.6204 92.2531 65.9644C94.6475 67.4093 96.2392 70.0239 96.2392 73.01V93.4725C92.2254 94.4633 88.0456 95 83.7412 95C79.4783 95 75.3123 94.4771 71.3262 93.4863V80.0418C69.5961 80.5785 67.3263 80.895 64.4059 80.7437C54.7175 80.2345 53.3335 74.3861 51.7834 70.2578C50.2194 66.1295 45.3752 65.6066 46.0672 63.9003C49.4111 62.7595 52.038 63.8466 53.8138 65.191C55.2227 66.2589 56.2054 67.7657 56.8628 69.4019C57.6144 71.2706 59.6116 74.3861 64.572 74.3861C68.0737 74.3861 70.1498 73.5742 71.34 72.7761C71.4092 69.8588 73.0148 67.3267 75.3676 65.9369C68.6135 65.5103 62.6897 64.2443 58.3299 60.4738C53.4857 56.2905 50.5654 47.9376 50.5654 42.0479C50.5654 37.1352 52.5999 31.0804 56.0878 27.2686C56.1985 27.1585 56.2954 27.0347 56.4338 26.9246C55.631 24.5302 54.7037 19.7964 56.9597 14.0031C63.6724 13.8792 68.9733 17.5259 71.1324 19.2873C75.0355 18.3928 79.2984 17.9662 83.7827 17.9662C88.3778 17.9662 92.7652 18.3653 96.7374 19.2873C98.8966 17.5259 104.211 13.8792 110.91 14.0168C113.263 20.0441 112.17 24.9293 111.353 27.2136C114.924 31.3006 117 37.0939 117 42.0479Z" fill="#F2C491"/>
</svg>
