<svg width="600" height="600" viewBox="0 0 600 600" fill="none" xmlns="http://www.w3.org/2000/svg">
<rect x="20" y="20" width="560" height="560" rx="80" stroke="#FAFAFA" stroke-width="40"/>
<path d="M100 100H187.5C235.825 100 275 139.175 275 187.5C275 235.825 235.825 275 187.5 275H100V100Z" fill="#A13D63"/>
<path d="M500 100L500 187.5C500 235.825 460.825 275 412.5 275C364.175 275 325 235.825 325 187.5L325 100L500 100Z" fill="#FAFAFA"/>
<path d="M500 325L500 500C472.386 500 450 477.614 450 450L450 375C450 347.386 472.386 325 500 325Z" fill="#FAFAFA"/>
<path d="M100 325H312.5C360.825 325 400 364.175 400 412.5C400 460.825 360.825 500 312.5 500H100V325Z" fill="#118AB2"/>
</svg>
