<svg width="95" height="139" viewBox="0 0 95 139" fill="none" xmlns="http://www.w3.org/2000/svg">
<path d="M3.61621 134.65C3.71621 132.5 4.01621 130.55 4.21621 130.35C4.66621 129.85 13.3162 129.05 18.8162 129C22.0162 129 22.6662 128.85 22.9162 128.15C23.0662 127.65 23.3162 124.55 23.5162 121.3L23.8662 115.35L19.3662 115.7C16.9162 115.85 13.1662 116.3 11.0662 116.7L7.21621 117.35V113.5V109.65L9.11621 109.1C10.1162 108.8 13.7662 108.2 17.2162 107.75C20.6662 107.25 23.7662 106.65 24.1162 106.4C24.4662 106.1 24.7162 104.75 24.7162 103.15V100.45L21.8662 100.75C20.2662 100.95 15.9662 101.5 12.3162 102.05C8.61621 102.55 5.41621 103 5.16621 103C4.46621 103 3.91621 99.9999 4.21621 97.7999L4.46621 95.7499L8.46621 95.1499C12.1662 94.5999 24.6662 93.4499 28.6662 93.2999C30.3162 93.2499 30.4162 93.3499 30.8662 95.2499C31.7162 99.0499 30.4162 136.95 29.4162 138C29.2662 138.15 23.3162 138.3 16.2662 138.4L3.36621 138.55L3.61621 134.65Z" fill="#37230F"/>
<path d="M35.4163 130.05C35.6163 125.75 35.9663 117.55 36.2163 111.75C36.4663 106 36.7163 98.6 36.7163 95.4C36.7163 88.65 36.7663 88.7 31.9663 89.5C27.5663 90.25 27.7663 90.35 27.7663 86.8C27.7663 83.1 27.8663 83 32.9663 83C36.9663 83 37.3163 82.7 37.1163 79.7L36.9663 77.25L33.4663 77.1C31.5663 77 23.5663 77.3 15.7663 77.75C4.06628 78.45 1.51628 78.5 1.16628 77.95C0.416278 76.7 0.0662782 72.45 0.666278 71.85C1.11628 71.4 7.06628 71.25 22.3663 71.25H43.4663V103.8C43.4663 130.6 43.3663 136.5 42.7663 137.15C42.2663 137.8 41.2663 138 38.5663 137.95L35.0663 137.9L35.4163 130.05Z" fill="#37230F"/>
<path d="M48.0162 137.05C47.1162 135.6 46.8662 125.55 47.1662 101.75C47.5162 72.6 47.3662 73.75 51.1162 72.15C53.5162 71.15 58.8662 71.5 61.4662 72.8C64.3662 74.25 65.2162 76.3 65.2162 82C65.2162 84.6 65.6662 94.85 66.2162 104.75C66.7662 114.65 67.2162 126.05 67.2162 130.05V137.35L63.4662 137.4L59.7662 137.45L59.5162 135.85C59.3662 134.95 59.1662 128.2 58.9662 120.75C58.8162 113.35 58.5662 104.05 58.3662 100.15L58.0662 93L56.3162 92C55.3662 91.4 54.4662 91.05 54.3662 91.2C54.0662 91.45 55.0662 126.65 55.4662 132.25C55.6162 134.2 55.5662 136 55.3662 136.3C54.8162 137.15 48.4162 137.75 48.0162 137.05ZM57.7162 81.75V78.5H55.9662H54.2162V81.2C54.2162 83.7 54.3162 83.95 55.6162 84.4C56.3662 84.7 57.1162 84.95 57.3662 84.95C57.5662 85 57.7162 83.55 57.7162 81.75Z" fill="#37230F"/>
<path d="M73.8663 136.45C72.8663 135.85 71.9663 134.65 71.5163 133.35C70.3163 130.05 68.7163 102.65 68.7663 86C68.7663 75.8 69.0663 74.95 73.4663 72.75C76.2163 71.4 76.9163 71.25 81.4663 71.25C85.5663 71.25 86.7663 71.45 88.1663 72.25C91.3663 74.15 91.8163 75.25 91.7663 81.05C91.7163 84.25 91.4663 86.35 91.1163 86.55C90.3163 87.05 84.2163 87.65 83.8163 87.25C83.6163 87.05 83.3663 85.15 83.2663 82.95L83.1163 79H81.2163C79.9663 79 79.2163 79.25 79.0163 79.8C78.2163 81.85 79.1163 118.25 80.1163 125.25C80.4663 127.6 80.5663 127.75 81.9663 127.75H83.4663L83.7163 121.5C83.8663 118.05 84.1163 115 84.3163 114.7C84.5163 114.35 85.5663 114.1 86.5663 114.05C87.6163 114 89.1163 113.9 89.9163 113.85C91.9663 113.7 92.3663 115.35 92.0163 123.15C91.6663 130.35 90.9163 132.55 88.1163 134.65C84.3163 137.5 76.9663 138.45 73.8663 136.45Z" fill="#37230F"/>
<path d="M5.66626 91.8999C5.61626 91.7999 5.56626 90.4499 5.46626 88.8999C5.36626 86.8499 5.51626 85.9999 6.01626 85.7999C6.41626 85.6499 8.76625 85.3999 11.3163 85.2499C13.8663 85.0499 17.4663 84.5999 19.2663 84.1499C23.8163 83.0999 24.6163 83.5499 24.5163 87.0999L24.4663 89.7499L20.2163 90.0499C17.8663 90.2499 14.1663 90.7499 11.9663 91.1999C8.31626 91.8999 5.81626 92.1999 5.66626 91.8999Z" fill="#37230F"/>
<path d="M50.8165 34.9C50.9165 8.05 51.0665 2 51.6665 1.35C52.1665 0.7 53.1665 0.5 55.7665 0.5H59.2165V5.15C59.2165 7.65 59.0165 13.9 58.7665 19C58.5165 24.1 58.1165 32.95 57.9165 38.7L57.5665 49.15L62.1165 48.85L66.6165 48.5L66.8165 51.3C66.8665 52.85 66.8165 54.3 66.6665 54.6C66.5165 54.85 64.3165 55.2 61.8165 55.35L57.2165 55.65V58.35C57.2165 60.1 57.4665 61.1 57.8665 61.3C58.2665 61.4 66.4165 61.2 76.0165 60.85C85.6165 60.45 93.5665 60.2 93.6165 60.3C93.7165 60.35 93.9165 61.75 94.0665 63.4C94.3165 66.2 94.2665 66.35 93.1665 66.75C92.5165 66.95 82.6665 67.2 71.3165 67.35L50.6665 67.6L50.8165 34.9Z" fill="#37230F"/>
<path d="M7.16631 66.3501C6.16631 65.9501 4.51631 65.1501 3.51631 64.5501C-0.0336914 62.3501 0.116309 63.4001 0.0163085 33.3001C-0.0336915 6.85006 -0.0336914 6.20006 1.01631 4.50006C3.11631 0.85006 9.21631 -0.899939 14.1163 0.700061C16.9163 1.65006 19.9163 4.50006 20.5663 6.85006C21.0663 8.65006 21.0663 15.8001 20.6163 16.3001C20.4163 16.5001 18.6163 16.4501 16.6163 16.2001L12.9663 15.7501L12.8163 12.6501C12.6663 9.55006 12.6663 9.55006 10.9663 9.20006C10.0663 9.05006 9.06631 9.05006 8.76631 9.20006C8.46631 9.40006 8.36631 11.0001 8.51631 13.4001C8.66631 15.5001 9.06631 26.2501 9.46631 37.2501C9.81631 48.2501 10.3163 57.7501 10.5163 58.4001C10.7663 59.3501 11.1163 59.5501 12.6663 59.4001L14.4663 59.2501L14.8163 53.6001C14.9663 50.4501 15.2663 47.8001 15.4163 47.6501C15.5663 47.5001 17.3663 47.5501 19.4663 47.7501L23.2163 48.1001L23.3163 53.1501C23.5663 63.2001 23.3663 63.9001 19.9663 65.6001C17.4163 66.9501 9.86631 67.3501 7.16631 66.3501Z" fill="#37230F"/>
<path d="M27.6165 66.6499C25.8165 66.4499 25.7665 66.3999 25.5165 63.8499C25.3665 62.3999 25.1165 55.8499 25.0165 49.2499C24.8665 42.6499 24.5165 33.7499 24.2165 29.4999C23.9665 25.2499 23.6665 18.3999 23.6165 14.2499C23.4665 7.34989 23.5665 6.59989 24.5665 4.69989C26.2665 1.54989 26.7165 1.34989 32.1165 1.29989C37.9665 1.24989 39.6665 1.99989 41.9665 5.74989L43.4665 8.14989L43.8165 35.9999C44.0165 51.2999 44.0165 64.4499 43.8165 65.2499C43.4665 66.4499 43.0665 66.7999 41.8665 66.8999C41.0165 66.9999 39.5665 66.8499 38.6665 66.5999L36.9665 66.1999L36.7165 47.3999C36.5665 37.0499 36.3165 28.4499 36.1665 28.2999C36.0165 28.0999 35.0165 28.3499 34.0165 28.7499L32.1165 29.5499L32.4665 35.1499C32.9665 43.9999 33.6165 66.1999 33.3665 66.6499C33.1665 66.9999 31.1165 66.9999 27.6165 66.6499ZM34.4665 19.4999C35.7165 19.0499 35.7665 18.8499 35.6165 15.6499L35.4665 12.2499H33.6165C32.5665 12.2499 31.7165 12.3999 31.7165 12.6499C31.7165 12.8499 31.7165 14.5999 31.7165 16.4999C31.7165 20.2999 31.9165 20.4999 34.4665 19.4999Z" fill="#37230F"/>
<path d="M69.8163 51.5501L69.7163 48.5001H72.3663C73.8163 48.5001 77.4663 48.0501 80.5163 47.4501C83.5163 46.9001 86.7163 46.3001 87.6163 46.1501L89.2163 45.8501V49.2001C89.2163 51.0001 89.1663 52.5001 89.1163 52.5501C88.3663 52.7001 75.2663 54.1501 72.9663 54.3501L69.9663 54.5501L69.8163 51.5501Z" fill="#37230F"/>
<path d="M62.9165 44.8C62.5665 43.95 64.6165 1.05 65.0165 0.4C65.1665 0.2 71.1665 0 78.3165 0H91.3665L91.0665 3.75C90.9165 5.8 90.6665 7.65 90.5165 7.9C90.3665 8.15 87.9165 8.5 85.1165 8.7C82.2665 8.85 78.1165 9.15 75.8665 9.3L71.7665 9.6L71.5165 13.2C71.3665 15.15 71.1665 18.2 71.0165 19.95L70.8165 23.1L73.6165 22.85C77.3165 22.5 83.7165 21.65 85.9165 21.25L87.6665 20.9L87.5665 24.75C87.4665 29.45 87.9665 29.15 77.7165 30.6C73.7165 31.15 70.3165 31.8 70.1665 32.05C69.8165 32.65 69.6165 36.9 69.9165 37.45C70.0665 37.65 71.7165 37.65 73.5665 37.4C80.5165 36.55 88.4165 35.4 89.0665 35.15C90.6665 34.55 91.4665 41.6 89.8665 42.45C88.8165 42.95 82.5665 43.75 73.4665 44.5C69.9165 44.8 66.1165 45.2 65.1165 45.35C63.6665 45.55 63.1665 45.45 62.9165 44.8Z" fill="#37230F"/>
</svg>
